# xmcd
#
# Track frame offsets:
#	150
#	18475
#	31937
#	46275
#	65862
#	74112
#	92400
#	110362
#	129100
#	145862
#	159700
#	178225
#	193662
#	210325
#
# Disc length: 3072 seconds
#
# Revision: 0
# Processed by: cddbd v1.4PL0 Copyright (c) Steve Scherf et al.
# Submitted via: EasyCDDAExtractor 5.0.5.1
#
DISCID=c80bfe0e
DTITLE=Norma O'Hara Murphy - Winds Of Change
DYEAR=1983
DGENRE=Country
TTITLE0=Early Morning Dj
TTITLE1=Funny Face
TTITLE2=She Feels Like Home
TTITLE3=Barbwire And Bamboo
TTITLE4=Love And All That Stuff
TTITLE5=Over The Western Side
TTITLE6=Face In The Crowd
TTITLE7=Tamworth (The Song)
TTITLE8=Old Time Picture Shows
TTITLE9=Mr Midnight
TTITLE10=Sleepy Little Town
TTITLE11=Music Box
TTITLE12=This Van Diemen's Land
TTITLE13=Winds Of Change
EXTD=
EXTT0=
EXTT1=
EXTT2=
EXTT3=
EXTT4=
EXTT5=
EXTT6=
EXTT7=
EXTT8=
EXTT9=
EXTT10=
EXTT11=
EXTT12=
EXTT13=
PLAYORDER=
